<svg xmlns="http://www.w3.org/2000/svg" viewBox="0 0 13 13"><defs><style>.cls-1{fill:#fff;}.cls-2{fill:#8e84a9;}</style></defs><g id="Layer_2" data-name="Layer 2"><g id="Layer_2-2" data-name="Layer 2"><path class="cls-1" d="M6.5,12a1,1,0,0,1-.92-.62L4.41,8.59,1.62,7.42a1,1,0,0,1,0-1.84L4.41,4.41,5.58,1.62a1,1,0,0,1,1.84,0L8.59,4.41l2.79,1.17a1,1,0,0,1,0,1.84L8.59,8.59,7.42,11.38A1,1,0,0,1,6.5,12Z"/><path class="cls-2" d="M6.5,2,7.82,5.18,11,6.5,7.82,7.82,6.5,11,5.18,7.82,2,6.5,5.18,5.18,6.5,2m0-2A2,2,0,0,0,4.65,1.23l-1,2.42-2.42,1a2,2,0,0,0,0,3.7l2.42,1,1,2.42a2,2,0,0,0,3.7,0l1-2.42,2.42-1a2,2,0,0,0,0-3.7l-2.42-1-1-2.42A2,2,0,0,0,6.5,0Z"/></g></g></svg>