<svg xmlns="http://www.w3.org/2000/svg" viewBox="0 0 14 39.2"><defs><style>.cls-1{fill:#fff;}.cls-2{fill:#8e84a9;}.cls-3{fill:#bab0cb;stroke:#8e84a9;stroke-miterlimit:10;}</style></defs><g id="Layer_2" data-name="Layer 2"><g id="Layer_2-2" data-name="Layer 2"><path class="cls-1" d="M7,6.37a.5.5,0,0,1-.46-.31L5.9,4.53,4.37,3.9a.51.51,0,0,1,0-.93L5.9,2.34,6.54.81a.5.5,0,0,1,.92,0L8.1,2.34,9.63,3a.51.51,0,0,1,0,.93L8.1,4.53,7.46,6.06A.5.5,0,0,1,7,6.37Z"/><path class="cls-2" d="M7,1l.72,1.72,1.71.71-1.71.72L7,5.87,6.28,4.15,4.57,3.43l1.71-.71L7,1M7,0a1,1,0,0,0-.92.62L5.52,2l-1.34.56a1,1,0,0,0,0,1.85l1.34.55.56,1.34a1,1,0,0,0,1.84,0l.56-1.34,1.34-.55a1,1,0,0,0,0-1.85L8.48,2,7.92.62A1,1,0,0,0,7,0Z"/><path class="cls-3" d="M12,19.92a3.17,3.17,0,0,0-.69-.29,3.79,3.79,0,0,0,.69-.3,3.16,3.16,0,0,0,1.36-1.52,2,2,0,0,0-.07-1.8,2,2,0,0,0-1.52-1,3.19,3.19,0,0,0-2,.43,3.15,3.15,0,0,0-.61.46,3.68,3.68,0,0,0,.09-.76A2.56,2.56,0,0,0,7,12.4a2.56,2.56,0,0,0-2.22,2.78,3.68,3.68,0,0,0,.09.76,3.15,3.15,0,0,0-.61-.46,3.19,3.19,0,0,0-2-.43A2,2,0,0,0,.75,16a2,2,0,0,0-.07,1.8A3.16,3.16,0,0,0,2,19.33a3.79,3.79,0,0,0,.69.3,3.19,3.19,0,0,0-2,1.81,2,2,0,0,0,.07,1.8,2,2,0,0,0,1.52,1l.38,0a3.19,3.19,0,0,0,1.61-.45,3.15,3.15,0,0,0,.61-.46,3.68,3.68,0,0,0-.09.76A2.56,2.56,0,0,0,7,26.85a2.56,2.56,0,0,0,2.22-2.78,3.68,3.68,0,0,0-.09-.76,3.15,3.15,0,0,0,.61.46,3.19,3.19,0,0,0,1.61.45l.38,0a2,2,0,0,0,1.52-1,2,2,0,0,0,.07-1.8A3.16,3.16,0,0,0,12,19.92Z"/><path class="cls-1" d="M7,18.13a1.5,1.5,0,1,1-1.5,1.49A1.5,1.5,0,0,1,7,18.13m0-1a2.5,2.5,0,1,0,2.5,2.49A2.49,2.49,0,0,0,7,17.13Z"/><path class="cls-1" d="M7,38.7a.51.51,0,0,1-.46-.31L5.9,36.86l-1.53-.64a.49.49,0,0,1-.3-.46.51.51,0,0,1,.3-.46l1.53-.64.64-1.52a.5.5,0,0,1,.92,0l.64,1.52,1.53.64a.51.51,0,0,1,.3.46.49.49,0,0,1-.3.46l-1.53.64-.64,1.53A.51.51,0,0,1,7,38.7Z"/><path class="cls-2" d="M7,33.33l.72,1.72,1.71.71-1.71.72L7,38.2l-.72-1.72-1.71-.72,1.71-.71L7,33.33m0-1a1,1,0,0,0-.92.61l-.56,1.34-1.34.56a1,1,0,0,0-.61.92,1,1,0,0,0,.61.92l1.34.56.56,1.34a1,1,0,0,0,1.84,0l.56-1.34,1.34-.56a1,1,0,0,0,.61-.92,1,1,0,0,0-.61-.92l-1.34-.56-.56-1.34A1,1,0,0,0,7,32.33Z"/></g></g></svg>