<svg xmlns="http://www.w3.org/2000/svg" viewBox="0 0 80.19 79.93"><defs><style>.cls-1,.cls-3{fill:#fff;}.cls-2{fill:#8e84a9;}.cls-3,.cls-4{stroke:#8e84a9;stroke-miterlimit:10;}.cls-4{fill:#bab0cb;stroke-width:1.5px;}</style></defs><g id="Layer_2" data-name="Layer 2"><g id="Layer_3" data-name="Layer 3"><path class="cls-1" d="M36.67,78.93a36,36,0,0,1,.32-72h.34a35.84,35.84,0,0,1,13,2.55l.18.07L66.3,9.7a13,13,0,0,1,8.63,22.6l-.79.72.78.74a13,13,0,0,1-.17,19l-.8.72.78.74a12.85,12.85,0,0,1,4.08,9.56,13,13,0,0,1-13,12.88l-15.94-.15-.18.07A35.75,35.75,0,0,1,37,78.94Z"/><path class="cls-2" d="M37,7.93h.33a34.75,34.75,0,0,1,12.62,2.48l.35.13h.37l15.63.14A12,12,0,0,1,78.18,22.81a11.87,11.87,0,0,1-3.92,8.75L72.67,33l1.56,1.48a11.95,11.95,0,0,1-.16,17.57l-1.59,1.45L74,55a11.87,11.87,0,0,1,3.77,8.82,12,12,0,0,1-12,11.89H65.7l-15.63-.14H49.7l-.35.13A34.71,34.71,0,0,1,37,77.93h-.32A35,35,0,0,1,2,42.62,35.11,35.11,0,0,1,37,7.93m0-2a37,37,0,0,0-.33,74H37a36.9,36.9,0,0,0,13-2.37l15.64.14h.13a14,14,0,0,0,9.6-24.17A13.94,13.94,0,0,0,75.61,33,14,14,0,0,0,66.31,8.7L50.68,8.56A36.73,36.73,0,0,0,37.34,5.94Z"/><path class="cls-3" d="M70.24,47.63a8,8,0,0,0-.11,11.72A5.93,5.93,0,0,1,72,63.75a6,6,0,0,1-6,6l-15.63-.14a8.08,8.08,0,0,0-2.91.51A29,29,0,1,1,47.93,16a8,8,0,0,0,2.89.57l15.63.14a6,6,0,0,1,4,10.43,8,8,0,0,0-.11,11.72,6,6,0,0,1-.08,8.78Z"/><path class="cls-4" d="M25.69,14.37a6,6,0,0,0-1.25-.55,6.84,6.84,0,0,0,1.26-.52,5.73,5.73,0,0,0,2.48-2.71,3.64,3.64,0,0,0-.1-3.24A3.62,3.62,0,0,0,25.35,5.6a5.67,5.67,0,0,0-3.59.73,6.5,6.5,0,0,0-1.11.82,6.11,6.11,0,0,0,.19-1.36c0-2.76-1.75-5-4-5s-4,2.21-4,5A5.59,5.59,0,0,0,13,7.08a6.15,6.15,0,0,0-1.1-.84,5.68,5.68,0,0,0-3.58-.8A3.63,3.63,0,0,0,5.57,7.15a3.63,3.63,0,0,0-.16,3.24,5.94,5.94,0,0,0,3.67,3.29,7,7,0,0,0-1.25.52,5.73,5.73,0,0,0-2.48,2.71,3.64,3.64,0,0,0,.1,3.24A3.62,3.62,0,0,0,8.18,21.9a4.91,4.91,0,0,0,.67.05,5.9,5.9,0,0,0,2.92-.78,6.5,6.5,0,0,0,1.11-.82,6.11,6.11,0,0,0-.19,1.36c0,2.76,1.75,5,4,5s4-2.21,4-5a5.59,5.59,0,0,0-.16-1.37,6.45,6.45,0,0,0,1.09.84,5.91,5.91,0,0,0,2.91.84c.22,0,.45,0,.67,0a3.49,3.49,0,0,0,2.92-4.95A5.68,5.68,0,0,0,25.69,14.37Z"/><path class="cls-1" d="M16.76,9.25l0,1.5a3,3,0,1,1-3,3,3,3,0,0,1,3-3V9.25m0,0a4.5,4.5,0,0,0,0,9h.05a4.5,4.5,0,0,0,0-9Z"/></g></g></svg>