<svg xmlns="http://www.w3.org/2000/svg" viewBox="0 0 587 74"><defs><style>.cls-1,.cls-3{fill:#fff;}.cls-2{fill:#8e84a9;}.cls-3{stroke:#8e84a9;stroke-miterlimit:10;}</style></defs><g id="Layer_2" data-name="Layer 2"><g id="Layer_2-2" data-name="Layer 2"><path class="cls-1" d="M37,73A36,36,0,1,1,50,3.43l.17.07H573a13,13,0,0,1,13,13A12.87,12.87,0,0,1,581.83,26l-.79.73.79.73a13,13,0,0,1,0,19l-.79.73.79.73A12.87,12.87,0,0,1,586,57.5a13,13,0,0,1-13,13H50.18l-.17.07A36,36,0,0,1,37,73Z"/><path class="cls-2" d="M37,2A35.08,35.08,0,0,1,49.65,4.36L50,4.5H573a12,12,0,0,1,12,12,11.87,11.87,0,0,1-3.85,8.78l-1.58,1.47,1.58,1.47a11.94,11.94,0,0,1,0,17.56l-1.58,1.47,1.58,1.47A11.87,11.87,0,0,1,585,57.5a12,12,0,0,1-12,12H50l-.34.14A35,35,0,1,1,37,2m0-2A37,37,0,1,0,50.37,71.5H573a14,14,0,0,0,9.51-24.25,13.94,13.94,0,0,0,0-20.5A14,14,0,0,0,573,2.5H50.37A36.86,36.86,0,0,0,37,0Z"/><path class="cls-3" d="M577.28,41.39a8,8,0,0,0,0,11.72,6,6,0,0,1-4.07,10.39H50.58a8,8,0,0,0-2.9.54,29,29,0,1,1,0-54.08,8,8,0,0,0,2.9.54H573.21a6,6,0,0,1,4.07,10.39,8,8,0,0,0,0,11.72,6,6,0,0,1,0,8.78Z"/></g></g></svg>