<svg xmlns="http://www.w3.org/2000/svg" viewBox="0 0 51.54 74"><defs><style>.cls-1{fill:#fff;}.cls-2{fill:#8e84a9;}</style></defs><g id="Layer_4" data-name="Layer 4"><path class="cls-1" d="M181,608v69h-1.17a37,37,0,1,1,0-69Z" transform="translate(-129.46 -605.53)"/><path class="cls-2" d="M166.46,607.53a34.83,34.83,0,0,1,12.65,2.36l.35.14H181v-2h-1.17a37,37,0,1,0,0,69H181v-2h-1.54l-.35.13a35,35,0,1,1-12.65-67.63Z" transform="translate(-129.46 -605.53)"/><path class="cls-1" d="M181,616v53h-1a8,8,0,0,0-2.9.54,29,29,0,1,1,0-54.08,8,8,0,0,0,2.9.54Z" transform="translate(-129.46 -605.53)"/><path class="cls-2" d="M180,615.53a7.46,7.46,0,0,1-2.72-.51,29.5,29.5,0,1,0,0,55,7.46,7.46,0,0,1,2.72-.51h1v-1h-1a8.54,8.54,0,0,0-3.08.57A28.5,28.5,0,1,1,177,616a8.54,8.54,0,0,0,3.08.57h1v-1Z" transform="translate(-129.46 -605.53)"/></g></svg>