<svg xmlns="http://www.w3.org/2000/svg" viewBox="0 0 15.64 74"><defs><style>.cls-1{fill:#fff;}.cls-2{fill:#8e84a9;}.cls-3{fill:none;}</style></defs><g id="Layer_4" data-name="Layer 4"><path class="cls-1" d="M616.14,535.72A13.94,13.94,0,0,1,611.65,546a14,14,0,0,1-9.51,24.25H600.5v-69h1.64a14,14,0,0,1,9.51,24.25A14,14,0,0,1,616.14,535.72Z" transform="translate(-600.5 -498.5)"/><path class="cls-2" d="M611.65,525.47a14,14,0,0,0-9.51-24.25H600.5v2h1.64A12,12,0,0,1,610.29,524l-1.58,1.46,1.58,1.47a11.95,11.95,0,0,1,0,17.57L608.71,546l1.58,1.47a11.87,11.87,0,0,1,3.85,8.78,12,12,0,0,1-12,12H600.5v2h1.64A14,14,0,0,0,611.65,546a13.94,13.94,0,0,0,0-20.5Z" transform="translate(-600.5 -498.5)"/><path class="cls-1" d="M606.42,540.11a8,8,0,0,0,0,11.72,6,6,0,0,1-4.07,10.39H600.5v-53h1.85a6,6,0,0,1,4.07,10.39,8,8,0,0,0,0,11.72,6,6,0,0,1,0,8.78Z" transform="translate(-600.5 -498.5)"/><path class="cls-2" d="M606.76,540.48a6.47,6.47,0,0,0,0-9.52,7.48,7.48,0,0,1,0-11,6.49,6.49,0,0,0-4.41-11.26H600.5v1h1.85a5.49,5.49,0,0,1,3.73,9.53,8.48,8.48,0,0,0,0,12.45,5.46,5.46,0,0,1,0,8,8.48,8.48,0,0,0,0,12.45,5.48,5.48,0,0,1-3.73,9.52H600.5v1h1.85a6.49,6.49,0,0,0,4.41-11.26,7.48,7.48,0,0,1,0-11Z" transform="translate(-600.5 -498.5)"/><rect class="cls-3" x="6" width="4" height="74"/></g></svg>