<svg xmlns="http://www.w3.org/2000/svg" viewBox="0 0 80.19 74"><defs><style>.cls-1,.cls-3{fill:#fff;}.cls-2{fill:#8e84a9;}.cls-3{stroke:#8e84a9;stroke-miterlimit:10;}</style></defs><g id="Layer_3" data-name="Layer 3"><path class="cls-1" d="M117.87,404.08a36,36,0,0,1,.32-72h.34a35.88,35.88,0,0,1,13,2.55l.17.07,15.82.14A13,13,0,0,1,160.38,348a12.85,12.85,0,0,1-4.25,9.48l-.79.73.78.74a12.94,12.94,0,0,1-.18,19l-.79.72.78.74A12.87,12.87,0,0,1,160,389a13,13,0,0,1-13,12.88l-16-.14-.17.06a35.75,35.75,0,0,1-12.7,2.32Z" transform="translate(-81.2 -331.08)"/><path class="cls-2" d="M118.19,333.08h.33a34.75,34.75,0,0,1,12.62,2.48l.35.14h.37l15.63.14A12,12,0,0,1,159.38,348a11.87,11.87,0,0,1-3.92,8.75l-1.59,1.45,1.56,1.48a11.95,11.95,0,0,1-.16,17.57l-1.59,1.45,1.56,1.48A11.89,11.89,0,0,1,159,389a12,12,0,0,1-12,11.89h-.11l-15.63-.14h-.37l-.35.13a34.93,34.93,0,0,1-12.35,2.25h-.32a35,35,0,0,1,.31-70m0-2a37,37,0,0,0-.33,74h.34a36.91,36.91,0,0,0,13-2.38l15.63.14H147a14,14,0,0,0,9.61-24.16,13.95,13.95,0,0,0,.18-20.5,14,14,0,0,0-9.29-24.34l-15.63-.14a36.94,36.94,0,0,0-13.34-2.62Z" transform="translate(-81.2 -331.08)"/><path class="cls-3" d="M151.44,372.77a8,8,0,0,0-.11,11.72,6,6,0,0,1-4.16,10.35l-15.63-.14a8.08,8.08,0,0,0-2.91.51,29,29,0,1,1,.49-54.07,8,8,0,0,0,2.9.56l15.63.15a6,6,0,0,1,4,10.42,8,8,0,0,0-.1,11.72,6,6,0,0,1-.08,8.78Z" transform="translate(-81.2 -331.08)"/></g></svg>