<svg xmlns="http://www.w3.org/2000/svg" viewBox="0 0 12.1 69.01"><defs><style>.cls-1{fill:#fff;}.cls-2{fill:#8e84a9;}</style></defs><g id="Layer_2" data-name="Layer 2"><rect class="cls-1" y="0.51" width="12" height="67"/><rect class="cls-1" x="0.5" y="67.51" width="11" height="1"/><polygon class="cls-2" points="12 67.01 0 67.01 0 69.01 12 69.01 12 67.01 12 67.01"/><rect class="cls-1" y="60.51" width="12" height="1"/><polygon class="cls-2" points="12 60.51 0 60.51 0 61.51 12 61.51 12 60.51 12 60.51"/><rect class="cls-1" x="0.6" y="0.5" width="11" height="1"/><polygon class="cls-2" points="12.1 0 0.1 0 0.1 2 12.1 2 12.1 0 12.1 0"/><rect class="cls-1" x="0.1" y="7.5" width="12" height="1"/><polygon class="cls-2" points="12.1 7.5 0.1 7.5 0.1 8.5 12.1 8.5 12.1 7.5 12.1 7.5"/></g></svg>