<svg xmlns="http://www.w3.org/2000/svg" viewBox="0 0 24.99 27.5"><defs><style>.cls-1{fill:#bab0cb;stroke:#8e84a9;stroke-miterlimit:10;stroke-width:1.5px;}.cls-2{fill:#fff;}</style></defs><g id="Layer_4" data-name="Layer 4"><path class="cls-1" d="M72.42,305.12a6.18,6.18,0,0,0-1.24-.55,6.47,6.47,0,0,0,1.25-.52,5.63,5.63,0,0,0,2.48-2.71,3.47,3.47,0,0,0-2.82-5,5.73,5.73,0,0,0-3.59.73,6.13,6.13,0,0,0-1.11.82,6.11,6.11,0,0,0,.18-1.36c0-2.76-1.75-5-3.95-5s-4,2.21-4,5a6.76,6.76,0,0,0,.16,1.37,6.07,6.07,0,0,0-1.09-.84,5.74,5.74,0,0,0-3.58-.8,3.48,3.48,0,0,0-2.91,4.95,5.94,5.94,0,0,0,3.67,3.29,6.47,6.47,0,0,0-1.25.52,5.63,5.63,0,0,0-2.48,2.71,3.47,3.47,0,0,0,2.82,5,5.06,5.06,0,0,0,.68.05,5.86,5.86,0,0,0,2.91-.78,6.13,6.13,0,0,0,1.11-.82,6.11,6.11,0,0,0-.18,1.36c0,2.76,1.75,5,4,5s4-2.21,4.05-5a6.76,6.76,0,0,0-.16-1.37,6.07,6.07,0,0,0,1.09.84,5.9,5.9,0,0,0,2.9.84,5.07,5.07,0,0,0,.68,0,3.48,3.48,0,0,0,2.91-4.95A5.63,5.63,0,0,0,72.42,305.12Z" transform="translate(-51 -290.75)"/><path class="cls-2" d="M63.5,300l0,1.5a3,3,0,1,1-3,3,3,3,0,0,1,3-3V300m0,0a4.5,4.5,0,0,0,0,9h0a4.5,4.5,0,0,0,0-9Z" transform="translate(-51 -290.75)"/></g></svg>